/* XPM */
static char *noname[] = {
/* width height ncolors chars_per_pixel */
"10 20 31 1",
/* colors */
"  c black",
". c #B1B1B1",
"X c gray64",
"o c #9D9D9D",
"O c #EEEEEE",
"+ c #E4E4E4",
"@ c #E2E2E2",
"# c gray88",
"$ c #D0D0D0",
"% c gray77",
"& c #B2B2B2",
"* c #ACACAC",
"= c gray66",
"- c #A2A2A2",
"; c gray61",
": c white",
"> c #F3F3F3",
", c #EFEFEF",
"< c gray90",
"1 c gray89",
"2 c #E1E1E1",
"3 c #DFDFDF",
"4 c #DDDDDD",
"5 c gray85",
"6 c #D5D5D5",
"7 c gray82",
"8 c gray81",
"9 c #CDCDCD",
"0 c gray79",
"q c gray78",
"w c #B7B7B7",
/* pixels */
":22222222:",
"3744444473",
"33ww>>ww33",
"##. && .##",
"##<*  *<##",
"223=  =322",
"22X -- X22",
"22oo77oo22",
"@O+11111O@",
"%22222222%",
":22222222:",
"3q000000q3",
"39;;88;;93",
"#7; ;; ;7#",
"#68;  ;86#",
"258;  ;852",
"24; ;; ;42",
"2#;;$8;;#2",
"@,<<<<<<,@",
"%22222222%"
};
