/* XPM */
static char *noname[] = {
/* width height ncolors chars_per_pixel */
"10 20 38 1",
/* colors */
"  c black",
". c #B2A99E",
"X c #AC9E8E",
"o c #EDE1D1",
"O c #EEE3D5",
"+ c #E1CBB1",
"@ c #E5D3BE",
"# c #EDE2D3",
"$ c #F5EFE8",
"% c #B8B2AC",
"& c #B7B2AB",
"* c #E7D7C3",
"= c #F0E6D9",
"- c #E3D0B8",
"; c #ECDFCE",
": c #E5D2BD",
"> c #B4ADA4",
", c #EDE1D2",
"< c #E0C9AE",
"1 c #EEE3D6",
"2 c #EADAC8",
"3 c #F0E7DB",
"4 c #AB9D8D",
"5 c #E5D3BC",
"6 c #E4D1BB",
"7 c #EDE0D1",
"8 c #F0E6DA",
"9 c #BBB8B3",
"0 c #DEC7AA",
"q c #EEE3D4",
"w c #F6F0E9",
"e c white",
"r c #AFA496",
"t c #EFE5D8",
"y c #F8F4EE",
"u c #ECDECE",
"i c #EEE2D3",
"p c #AFA395",
/* pixels */
"eiiiiiiiie",
"o5;;;;;;5o",
"oo99yy99oo",
",,& %% &,,",
"##3>  >3##",
"ii7.  .7ii",
"qqr pp rqq",
"OOXX@@XXOO",
"1$=ttttt$1",
"0iiiiiiii0",
"eiiiiiiiie",
"o<++++++<o",
"o-446644-o",
",@4 44 4@,",
"#*64  46*#",
"i264  462i",
"qu4 44 4uq",
"Oi44:644iO",
"1w888888w1",
"0iiiiiiii0"
};
