/* XPM */
static char *noname[] = {
/* width height ncolors chars_per_pixel */
"10 20 35 1",
/* colors */
"  c #F7F0E8",
". c #F7F2EB",
"X c gray50",
"o c #D5CEC6",
"O c #FAF8F4",
"+ c #F4EDE4",
"@ c #DAD6D1",
"# c #F0E4D6",
"$ c #F7F1EA",
"% c #DBD8D5",
"& c #F7F3ED",
"* c #F1E8DD",
"= c #FAF7F3",
"- c #D7D1CA",
"; c #F7F0E9",
": c #DCD9D5",
"> c #F0E5D8",
", c #DDDBD9",
"< c #F3E9DE",
"1 c #F1E7DC",
"2 c #F3EBE1",
"3 c #D9D4CE",
"4 c #F6EFE7",
"5 c #D5CFC6",
"6 c #FCF9F6",
"7 c #D7D1CB",
"8 c #EEE3D4",
"9 c #F6F0E9",
"0 c white",
"q c #F2E9DE",
"w c #F7F1E9",
"e c #F6EFE8",
"r c #F5EFE7",
"t c #F8F3ED",
"y c #F7F3EC",
/* pixels */
"0wwwwwwww0",
" <444444< ",
"  ,,66,,  ",
"  %X::X%  ",
";;t@XX@t;;",
";;e3XX3e;;",
"$$7X--X7$$",
"$$55qq55$$",
"$=y.....=$",
"8wwwwwwww8",
"0wwwwwwww0",
" #>>>>>># ",
" 1oo**oo1 ",
" qoXooXoq ",
";2*oXXo*2;",
";+*oXXo*+;",
"$roXooXor$",
"$9ooq*oo9$",
"$O&&&&&&O$",
"8wwwwwwww8"
};
