/* XPM */
static char *noname[] = {
/* width height ncolors chars_per_pixel */
"10 20 34 1",
/* colors */
"  c black",
". c #39342E",
"X c #E2CEB6",
"o c #EBDDCC",
"O c #E4D2BB",
"+ c #EDE1D1",
"@ c #EEE3D5",
"# c #78746E",
"$ c #F4EDE4",
"% c #756D64",
"& c #EDE2D3",
"* c #F5EFE8",
"= c #E0CAAF",
"- c #3A3630",
"; c #7A7772",
": c #ECDFCE",
"> c #EDE1D2",
", c #DFC9AD",
"< c #EEE3D6",
"1 c #E9DAC7",
"2 c #F0E7DB",
"3 c #71675B",
"4 c #736B60",
"5 c #E5D3BC",
"6 c #EDE0D1",
"7 c #E6D5C0",
"8 c #E9D9C6",
"9 c #E2CEB5",
"0 c #DEC7AA",
"q c #EEE3D4",
"w c white",
"e c #777069",
"r c #EFE5D8",
"t c #EEE2D3",
/* pixels */
"wttttttttw",
"+5::::::5+",
"++      ++",
">>;$$$$;>>",
"&&#2222#&&",
"tte6666ett",
"qq%1111%qq",
"@@-4444-@@",
"<*rrrrrr*<",
"0tttttttt0",
"wttttttttw",
"+,======,+",
"+9      9+",
">O3XXXX3O>",
"&73XXXX37&",
"t83XXXX38t",
"qo3XXXX3oq",
"@6.3333.6@",
"<*rrrrrr*<",
"0tttttttt0"
};
