/* XPM */
static char *noname[] = {
/* width height ncolors chars_per_pixel */
"10 20 31 1",
/* colors */
"  c #F4ECE2",
". c #F7F0E8",
"X c #F7F2EB",
"o c gray50",
"O c #B8B3AD",
"+ c #FAF6F1",
"@ c #BDBBB8",
"# c #F7F1EA",
"$ c #F1E6DA",
"% c #BAB6B1",
"& c #FAF7F3",
"* c #F4ECE3",
"= c #F7F0E9",
"- c #B9B5AF",
"; c #F3E9DE",
": c #BBB7B4",
"> c #F6EFE7",
", c #EFE4D6",
"< c #F0E6DA",
"1 c #F3EAE0",
"2 c #F5EEE5",
"3 c #EEE3D4",
"4 c white",
"5 c #9C9A97",
"6 c #BCB9B6",
"7 c #F7F1E9",
"8 c #F6EFE8",
"9 c #EFE4D7",
"0 c #F8F3ED",
"q c #9C9996",
"w c #F2E8DD",
/* pixels */
"4777777774",
".;>>>>>>;.",
"..oooooo..",
"..@++++@..",
"==600006==",
"==:8888:==",
"##%****%##",
"##5----5##",
"#&XXXXXX&#",
"3777777773",
"4777777774",
".,999999,.",
".$oooooo$.",
".wO<<<<Ow.",
"=1O<<<<O1=",
"= O<<<<O =",
"#2O<<<<O2#",
"#8qOOOOq8#",
"#&XXXXXX&#",
"3777777773"
};
