/* XPM */
static char *noname[] = {
/* width height ncolors chars_per_pixel */
"10 20 29 1",
/* colors */
"  c black",
". c gray45",
"X c #EEEEEE",
"o c #ECECEC",
"O c #353535",
"+ c gray20",
"@ c #E2E2E2",
"# c gray88",
"$ c #D8D8D8",
"% c #D0D0D0",
"& c gray80",
"* c #C6C6C6",
"= c gray77",
"- c #767676",
"; c gray44",
": c #6C6C6C",
"> c #6A6A6A",
", c gray40",
"< c white",
"1 c gray90",
"2 c gray89",
"3 c #E1E1E1",
"4 c #DFDFDF",
"5 c #DDDDDD",
"6 c gray86",
"7 c #D7D7D7",
"8 c light grey",
"9 c gray82",
"0 c gray78",
/* pixels */
"<33333333<",
"4955555594",
"44      44",
"##-oooo-##",
"##.1111.##",
"33;4444;33",
"33:$$$$:33",
"33O>>>>O33",
"@X222222X@",
"=33333333=",
"<33333333<",
"4*000000*4",
"4&      &4",
"#%,&&&&,%#",
"#8,&&&&,8#",
"37,&&&&,73",
"36,&&&&,63",
"34+,,,,+43",
"@X222222X@",
"=33333333="
};
