/* XPM */
static char *noname[] = {
/* width height ncolors chars_per_pixel */
"10 20 11 1",
/* colors */
"  c gray98",
". c #ECECEC",
"X c #D8D8D8",
"o c gray80",
"O c #CACACA",
"+ c white",
"@ c #F3F3F3",
"# c gray90",
"$ c #DFDFDF",
"% c gray82",
"& c #C3C3C3",
/* pixels */
"++++++++++",
"          ",
"@@@@@@@@@@",
"..........",
"##########",
"$$$$$$$$$$",
"XXXXXXXXXX",
"%%%%%%%%%%",
"OOOOOOOOOO",
"&&&&&&&&&&",
"++++++++++",
" oooooooo ",
"@oooooooo@",
".oooooooo.",
"#oooooooo#",
"$oooooooo$",
"XooooooooX",
"%oooooooo%",
"OooooooooO",
"&&&&&&&&&&"
};
