/* XPM */
static char *noname[] = {
/* width height ncolors chars_per_pixel */
"10 20 28 1",
/* colors */
"  c black",
". c #E2CEB6",
"X c #EBDDCC",
"o c #E4D2BB",
"O c #EDE1D1",
"+ c #EEE3D5",
"@ c #F4EDE4",
"# c #E5D3BE",
"$ c #EDE2D3",
"% c #F5EFE8",
"& c #E0CAAF",
"* c #ECDFCE",
"= c #EDE1D2",
"- c #DFC9AD",
"; c #EEE3D6",
": c #E9DAC7",
"> c #F0E7DB",
", c #E5D3BC",
"< c #EDE0D1",
"1 c #E6D5C0",
"2 c #E9D9C6",
"3 c #E2CEB5",
"4 c #DEC7AA",
"5 c #EEE3D4",
"6 c white",
"7 c #EFE5D8",
"8 c #F8F4EE",
"9 c #EEE2D3",
/* pixels */
"6999999996",
"O,******,O",
"OO888888OO",
"==@@@@@@==",
"$$>>>>>>$$",
"99<<<<<<99",
"55::::::55",
"++#    #++",
";%777777%;",
"4999999994",
"6999999996",
"O-&&&&&&-O",
"O3......3O",
"=o......o=",
"$1......1$",
"92......29",
"5X......X5",
"+<.    .<+",
";%777777%;",
"4999999994"
};
