/* XPM */
static char *noname[] = {
/* width height ncolors chars_per_pixel */
"10 20 22 1",
/* colors */
"  c black",
". c #EEEEEE",
"X c #ECECEC",
"o c #E2E2E2",
"O c gray88",
"+ c #D8D8D8",
"@ c #D0D0D0",
"# c gray80",
"$ c #C6C6C6",
"% c gray77",
"& c white",
"* c #F3F3F3",
"= c gray90",
"- c gray89",
"; c #E1E1E1",
": c #DFDFDF",
"> c #DDDDDD",
", c gray86",
"< c #D7D7D7",
"1 c light grey",
"2 c gray82",
"3 c gray78",
/* pixels */
"&;;;;;;;;&",
":2>>>>>>2:",
"::******::",
"OOXXXXXXOO",
"OO======OO",
";;::::::;;",
";;++++++;;",
";;2    2;;",
"o.------.o",
"%;;;;;;;;%",
"&;;;;;;;;&",
":$333333$:",
":########:",
"O@######@O",
"O1######1O",
";<######<;",
";,######,;",
";:#    #:;",
"o.------.o",
"%;;;;;;;;%"
};
