/* XPM */
static char *noname[] = {
/* width height ncolors chars_per_pixel */
"10 20 25 1",
/* colors */
"  c #F4ECE2",
". c #F7F0E8",
"X c #F7F2EB",
"o c gray50",
"O c #FAF6F1",
"+ c #F7F1EA",
"@ c #F1E6DA",
"# c #FAF7F3",
"$ c #F4ECE3",
"% c #F7F0E9",
"& c #F3E9DE",
"* c #F6EFE7",
"= c #EFE4D6",
"- c #F0E6DA",
"; c #F3EAE0",
": c #FCF9F6",
"> c #F5EEE5",
", c #EEE3D4",
"< c white",
"1 c #F2E9DE",
"2 c #F7F1E9",
"3 c #F6EFE8",
"4 c #EFE4D7",
"5 c #F8F3ED",
"6 c #F2E8DD",
/* pixels */
"<22222222<",
".&******&.",
"..::::::..",
"..OOOOOO..",
"%%555555%%",
"%%333333%%",
"++$$$$$$++",
"++1oooo1++",
"+#XXXXXX#+",
",22222222,",
"<22222222<",
".=444444=.",
".@------@.",
".6------6.",
"%;------;%",
"% ------ %",
"+>------>+",
"+3-oooo-3+",
"+#XXXXXX#+",
",22222222,"
};
