/* XPM */
static char *noname[] = {
/* width height ncolors chars_per_pixel */
"10 20 41 1",
/* colors */
"  c gray68",
". c #A7A7A7",
"X c #9D9D9D",
"o c gray60",
"O c gray46",
"+ c gray45",
"@ c #6F6F6F",
"# c #EEEEEE",
"$ c gray23",
"% c #ECECEC",
"& c gray20",
"* c #E4E4E4",
"= c #E2E2E2",
"- c gray88",
"; c #D8D8D8",
": c #D0D0D0",
"> c gray80",
", c #C6C6C6",
"< c gray77",
"1 c gray48",
"2 c #767676",
"3 c #747474",
"4 c gray44",
"5 c #6C6C6C",
"6 c #686868",
"7 c gray40",
"8 c white",
"9 c #F3F3F3",
"0 c #3A3A3A",
"q c gray22",
"w c gray90",
"e c gray89",
"r c #E1E1E1",
"t c #DFDFDF",
"y c #DDDDDD",
"u c gray86",
"i c #D7D7D7",
"p c light grey",
"a c gray82",
"s c gray78",
"d c #B7B7B7",
/* pixels */
"8rrrrrrrr8",
"tayyyyyyat",
"tt99111dtt",
"--%%$OO2--",
"-- 303w+--",
"rr4@@q@.-r",
"rr5;;5;;rr",
"rrX666aarr",
"=#*eeeee#=",
"<rrrrrrrr<",
"8rrrrrrrr8",
"t,ssssss,t",
"t>>>777o>t",
"-:>>&777:-",
"-po7&7>7p-",
"ri777&7oir",
"ru7>>7>>ur",
"rto777>>tr",
"=#*eeeee#=",
"<rrrrrrrr<"
};
