/* XPM */
static char *noname[] = {
/* width height ncolors chars_per_pixel */
"10 20 45 1",
/* colors */
"  c #F4ECE2",
". c #F7F0E8",
"X c #BCBAB8",
"o c #F7F2EB",
"O c #B8B3AD",
"+ c #FAF6F1",
"@ c #BDBBB8",
"# c #BCB9B7",
"$ c #F7F1EA",
"% c #F1E6DA",
"& c #D4CDC4",
"* c #BAB6B1",
"= c #FAF7F3",
"- c #9E9D9C",
"; c #F4ECE3",
": c #D8D3CE",
"> c #F7F0E9",
", c #F6F0E8",
"< c #DDDBD9",
"1 c #F3E9DE",
"2 c #9E9C9B",
"3 c #BBB7B4",
"4 c #BAB7B3",
"5 c #F6EFE7",
"6 c #DAD6D2",
"7 c #EFE4D6",
"8 c #F0E6DA",
"9 c #9D9B99",
"0 c #D5CFC6",
"q c #F3EAE0",
"w c #FCF9F6",
"e c #F5EEE5",
"r c #EEE3D4",
"t c white",
"y c #F2E9DE",
"u c #BCB9B6",
"i c #BEBDBB",
"p c #F7F1E9",
"a c #F6EFE8",
"s c #EFE4D7",
"d c #F8F3ED",
"f c #F7F3EC",
"g c #9C9996",
"h c #B8B4AE",
"j c #F2E8DD",
/* pixels */
"tppppppppt",
".15555551.",
"..wwiii<..",
"..++-XX@..",
">>6#2#du>>",
">>34494:,>",
"$$*;;*;;$$",
"$$0hhhyy$$",
"$=fooooo=$",
"rppppppppr",
"tppppppppt",
".7ssssss7.",
".%88OOO&%.",
".j88gOOOj.",
">q&OgO8Oq>",
"> OOOgO& >",
"$eO88O88e$",
"$a&OOO88a$",
"$=fooooo=$",
"rppppppppr"
};
