/* XPM */
static char *noname[] = {
/* width height ncolors chars_per_pixel */
"10 20 48 1",
/* colors */
"  c #39342E",
". c #E2CEB6",
"X c #EBDDCC",
"o c #AC9E8E",
"O c #E4D2BB",
"+ c #EEE1D2",
"@ c #EDE1D1",
"# c #3D3A38",
"$ c #EEE3D5",
"% c #79746F",
"& c #78746E",
"* c #72695E",
"= c #F4EDE4",
"- c #756D64",
"; c #E5D3BE",
": c #EDE2D3",
"> c #F5EFE8",
", c #E0CAAF",
"< c #F0E6D9",
"1 c #7A7772",
"2 c #ECDFCE",
"3 c #3B3834",
"4 c #7D7B78",
"5 c #EDE1D2",
"6 c #DFC9AD",
"7 c #EEE3D6",
"8 c #E9DAC7",
"9 c #F0E7DB",
"0 c #71675B",
"q c #7A7671",
"w c #AA9B89",
"e c #E5D3BC",
"r c #EDE0D1",
"t c #E6D5C0",
"y c #E9D9C6",
"u c #E2CEB5",
"i c #BBB8B3",
"p c #DEC7AA",
"a c #EEE3D4",
"s c white",
"d c #777069",
"f c #EFE5D8",
"g c #F8F4EE",
"h c #B2A89C",
"j c #B5AEA5",
"k c #EEE2D3",
"l c #3D3B39",
"z c #766F67",
/* pixels */
"skkkkkkkks",
"@e222222e@",
"@@gg444i@@",
"55==lqq155",
"::j%#%9&::",
"kkdzz3zh+k",
"aa-88-88aa",
"$$o***;;$$",
"7><fffff>7",
"pkkkkkkkkp",
"skkkkkkkks",
"@6,,,,,,6@",
"@u..000wu@",
"5O.. 000O5",
":tw0 0.0t:",
"ky000 0wyk",
"aX0..0..Xa",
"$rw000..r$",
"7><fffff>7",
"pkkkkkkkkp"
};
