/* XPM */
static char *noname[] = {
/* width height ncolors chars_per_pixel */
"10 20 20 1",
/* colors */
"  c #F4ECE2",
". c #F7F0E8",
"X c #F7F2EB",
"o c #B8B3AD",
"O c #F7F1EA",
"+ c #F1E6DA",
"@ c #D4CDC4",
"# c #FAF7F3",
"$ c #F7F0E9",
"% c #EFE4D6",
"& c #F0E6DA",
"* c #F3EAE0",
"= c #F5EEE5",
"- c #EEE3D4",
"; c white",
": c #F7F1E9",
"> c #F6EFE8",
", c #EFE4D7",
"< c #F7F3EC",
"1 c #F2E8DD",
/* pixels */
";::::::::;",
".%,,,,,,%.",
".+@oooo@+.",
".1@oooo@1.",
"$*&&&&&&*$",
"$ &&&&&& $",
"O=&&&&&&=O",
"O>&&&&&&>O",
"O#<XXXXX#O",
"-::::::::-",
";::::::::;",
".%,,,,,,%.",
".+@oooo@+.",
".1@oooo@1.",
"$*&&&&&&*$",
"$ &&&&&& $",
"O=&&&&&&=O",
"O>&&&&&&>O",
"O#<XXXXX#O",
"-::::::::-"
};
