/* XPM */
static char *noname[] = {
/* width height ncolors chars_per_pixel */
"10 20 18 1",
/* colors */
"  c gray60",
". c #EEEEEE",
"X c #E4E4E4",
"o c #E2E2E2",
"O c gray88",
"+ c #D0D0D0",
"@ c gray80",
"# c #C6C6C6",
"$ c gray77",
"% c gray40",
"& c white",
"* c gray89",
"= c #E1E1E1",
"- c #DFDFDF",
"; c gray86",
": c #D7D7D7",
"> c light grey",
", c gray78",
/* pixels */
"&========&",
"-#,,,,,,#-",
"-@ %%%% @-",
"O+ %%%% +O",
"O>@@@@@@>O",
"=:@@@@@@:=",
"=;@@@@@@;=",
"=-@@@@@@-=",
"o.X*****.o",
"$========$",
"&========&",
"-#,,,,,,#-",
"-@ %%%% @-",
"O+ %%%% +O",
"O>@@@@@@>O",
"=:@@@@@@:=",
"=;@@@@@@;=",
"=-@@@@@@-=",
"o.X*****.o",
"$========$"
};
