/* XPM */
static char *noname[] = {
/* width height ncolors chars_per_pixel */
"10 20 23 1",
/* colors */
"  c #E2CEB6",
". c #EBDDCC",
"X c #E4D2BB",
"o c #EDE1D1",
"O c #EEE3D5",
"+ c #EDE2D3",
"@ c #F5EFE8",
"# c #E0CAAF",
"$ c #F0E6D9",
"% c #EDE1D2",
"& c #DFC9AD",
"* c #EEE3D6",
"= c #71675B",
"- c #AA9B89",
"; c #EDE0D1",
": c #E6D5C0",
"> c #E9D9C6",
", c #E2CEB5",
"< c #DEC7AA",
"1 c #EEE3D4",
"2 c white",
"3 c #EFE5D8",
"4 c #EEE2D3",
/* pixels */
"2444444442",
"o&######&o",
"o,-====-,o",
"%X======X%",
"+:=    =:+",
"4>=    =>4",
"1.=    =.1",
"O;-====-;O",
"*@$33333@*",
"<44444444<",
"2444444442",
"o&######&o",
"o,-====-,o",
"%X======X%",
"+:=    =:+",
"4>=    =>4",
"1.=    =.1",
"O;-====-;O",
"*@$33333@*",
"<44444444<"
};
