/* XPM */
/* based on xbiff's mail-down image */
static char *noname[] = {
/* width height ncolors chars_per_pixel */
"16 16 10 1",
/* colors */
"  c red",
". c #710000",
"X c #550000",
"o c #390000",
"O c #C60000",
"+ c #AA0000",
"@ c #8E0000",
"# c white",
"$ c #E30000",
"% c #1c0000",
/* pixels */
"################",
"#######@XX+#####",
"######.O##@O####",
"#####.$####X#++#",
"####XXX.##X.+ +#",
"###@+##O@X+XXXO#",
"###X#@@#o+XX####",
"###X####X#.+####",
"++$X####X##+O+++",
"###X####X#++####",
"###X####X++#####",
"###oXXXX%X######",
"######++#+######",
"######++#+######",
"+O++OO@+$.++O$O+",
"X+@+@.+.X@OO@o.+"
};
