/* XPM */
/* based on xbiff's mail-up image */
static char *noname[] = {
/* width height ncolors chars_per_pixel */
"16 16 10 1",
/* colors */
"  c black",
". c #717171",
"X c #555555",
"o c #393939",
"O c #C6C6C6",
"+ c #AAAAAA",
"@ c #8E8E8E",
"# c white",
"$ c gray89",
"% c gray11",
/* pixels */
"         o+++   ",
"       @@++@O   ",
"      @% X$O#   ",
"     @%  X+.    ",
"    +++@ X#@    ",
"   .X  o.++X    ",
"   + .. O++X    ",
"   +    +X@X    ",
"XX%+O.@X+  XoXXX",
"   +.o.X+ XX    ",
"X.X+    +X..@.@X",
"X@XO++++$+.@.@.X",
"X.@XXX.X X@.@.@X",
"X@.@.@.X X.@.@.X",
"X.@.@.@X%.@.@.@X",
"oXXXXXXXXXXXXXX%"
};
