/* XPM */
/* based on xbiff's mail-down image */
static char *noname[] = {
/* width height ncolors chars_per_pixel */
"16 16 10 1",
/* colors */
"  c black",
". c #717171",
"X c #555555",
"o c #393939",
"O c #C6C6C6",
"+ c #AAAAAA",
"@ c #8E8E8E",
"# c white",
"$ c gray89",
"% c gray11",
/* pixels */
"################",
"################",
"################",
"################",
"################",
"################",
"################",
"################",
"++++++++++++++++",
"####$@@+########",
"####@$+@@%######",
"####XXXX%X######",
"######++#+######",
"######++#+######",
"+O++OO@+$.++O$O+",
"X+@+@.+.X@OO@o.+"
};
