/* XPM */
static char * start_xpm[] = {
"48 20 172 2",
"  	c None",
". 	c #FBF8F4",
"+ 	c #F8F3EB",
"@ 	c #F8F2EA",
"# 	c #F9F5EF",
"$ 	c #F9F5EE",
"% 	c #F9F4EE",
"& 	c #F7F2E9",
"* 	c #F5EDE3",
"= 	c #F5EDE2",
"- 	c #F6EFE6",
"; 	c #F6EFE5",
"> 	c #F4ECE2",
", 	c #F7EFE6",
"' 	c #F4EBE0",
") 	c #F3EADF",
"! 	c #F5ECE2",
"~ 	c #F6EEE6",
"{ 	c #F4EBE1",
"] 	c #F5ECE3",
"^ 	c #F4EAE0",
"/ 	c #F6EFE7",
"( 	c #F5EDE5",
"_ 	c #F3EAE0",
": 	c #F7F0E9",
"< 	c #F5EDE4",
"[ 	c #F4ECE3",
"} 	c #F7F0E8",
"| 	c #F5EEE6",
"1 	c #F5EEE5",
"2 	c #F7F1E9",
"3 	c #F7EFE8",
"4 	c #302020",
"5 	c #F7F1EA",
"6 	c #483938",
"7 	c #DFD7CF",
"8 	c #B1A7A1",
"9 	c #B6ACA8",
"0 	c #473937",
"a 	c #544645",
"b 	c #A69C96",
"c 	c #A89E99",
"d 	c #544544",
"e 	c #F7EFE7",
"f 	c #F6EFE8",
"g 	c #7A6D6B",
"h 	c #B4AAA6",
"i 	c #6E615F",
"j 	c #766967",
"k 	c #736664",
"l 	c #796D6A",
"m 	c #564746",
"n 	c #EDE7E0",
"o 	c #EBE4DD",
"p 	c #4E3F3E",
"q 	c #F7F1E8",
"r 	c #F8F2EB",
"s 	c #F7F2EA",
"t 	c #E4E0DC",
"u 	c #675A58",
"v 	c #362626",
"w 	c #4E403F",
"x 	c #CDC5C0",
"y 	c #FAF7F3",
"z 	c #E0D9D3",
"A 	c #605352",
"B 	c #342524",
"C 	c #594B49",
"D 	c #DBD6D3",
"E 	c #ACA29D",
"F 	c #8B807F",
"G 	c #463737",
"H 	c #EEEAE6",
"I 	c #443534",
"J 	c #F1EDE9",
"K 	c #ADA6A3",
"L 	c #968D8B",
"M 	c #B7AEA9",
"N 	c #B9B1AF",
"O 	c #877B78",
"P 	c #F8F2EC",
"Q 	c #F6F0E8",
"R 	c #F8F1EA",
"S 	c #EEE3D4",
"T 	c #6D605E",
"U 	c #877972",
"V 	c #EDE7DF",
"W 	c #B4ABA6",
"X 	c #50413F",
"Y 	c #685A55",
"Z 	c #B2A8A3",
"` 	c #F0EAE2",
" .	c #B0A49A",
"..	c #5F5150",
"+.	c #D6CABD",
"@.	c #5E504E",
"#.	c #AA9E94",
"$.	c #857975",
"%.	c #7D6F69",
"&.	c #B3A9A4",
"*.	c #5E514F",
"=.	c #DED6CF",
"-.	c #D9D1CB",
";.	c #796B65",
">.	c #7D716E",
",.	c #BFB2A7",
"'.	c #F8F3EC",
").	c #FFFFFF",
"!.	c #392929",
"~.	c #F5F4F4",
"{.	c #382929",
"].	c #332423",
"^.	c #4F403F",
"/.	c #F3ECE5",
"(.	c #706565",
"_.	c #D0C8C2",
":.	c #D3D0D0",
"<.	c #6C5F5D",
"[.	c #FBFBFB",
"}.	c #4F4140",
"|.	c #6C6161",
"1.	c #534443",
"2.	c #FCFCFC",
"3.	c #F8F1E9",
"4.	c #EDE6DE",
"5.	c #EFE4D6",
"6.	c #372727",
"7.	c #DFD3C7",
"8.	c #776963",
"9.	c #9E9189",
"0.	c #584A48",
"a.	c #534442",
"b.	c #A19691",
"c.	c #9A8E8A",
"d.	c #A2958D",
"e.	c #766863",
"f.	c #F6EEE5",
"g.	c #F4ECE1",
"h.	c #665754",
"i.	c #938783",
"j.	c #E9DED2",
"k.	c #B2A69E",
"l.	c #F1E6DA",
"m.	c #655856",
"n.	c #8C7E78",
"o.	c #EEE3D7",
"p.	c #A99F9A",
"q.	c #5B4C49",
"r.	c #A89B93",
"s.	c #9F9490",
"t.	c #9C8F88",
"u.	c #DED5CE",
"v.	c #3C2D2C",
"w.	c #DACFC6",
"x.	c #605250",
"y.	c #332323",
"z.	c #CDC4BE",
"A.	c #F2E8DD",
"B.	c #DCD4CD",
"C.	c #5C4D4A",
"D.	c #342424",
"E.	c #D1C6BD",
"F.	c #D9CEC5",
"G.	c #E6DED7",
"H.	c #E2D8CE",
"I.	c #60524F",
"J.	c #E9DFD4",
"K.	c #F6F0E7",
"L.	c #F7F2EB",
"M.	c #F3EBDF",
"N.	c #F5EEE4",
"O.	c #F7F0E7",
". + @ # $ # @ @ # $ # @ @ # $ # @ @ # $ # @ @ % @ @ # $ # @ @ # $ # @ @ # $ # @ @ # $ # @ @ % & ",
"@ * = - - - = = - - - = = - - - = = - - - = = ; = = - - - = = - - - = = - - - = = - - - = = ; > ",
", ' ) ! ! ! ) ) ! ! ! ) ) ! ! ! ) ) ! ! ! ) ) ! ) ) ! ! ! ) ) ! ! ! ) ) ! ! ! ) ) ! ! ! ) ) ! ) ",
"~ { { ] ] ] { { ] ] ] { { ] ] ] { { ] ] ] { { ] { { ] ] ] { { ] ] ] { { ] ] ] { { ] ] ] { { ] ^ ",
"/ ] ] ( ( ( ] _ : _ : _ _ : _ : _ _ : _ : _ _ : _ _ : _ : _ _ : _ : _ _ : _ : ] ] ( ( ( ] ] < [ ",
"} | 1 / / / 1 > : > : > > : > : > > : > : > > : > > : > : > > : > : > > : > : 1 1 / / / 1 1 / 1 ",
"2 3 3 } } } 3 4 5 1 5 1 1 5 1 5 1 1 5 1 6 7 1 5 8 4 9 1 5 7 0 a b 5 1 1 c d 5 3 3 } } } 3 3 } e ",
"5 5 5 5 5 5 5 4 5 f 5 f f 5 f 5 f f 5 f g h f 5 i j k f 5 h l 4 m n f o p 4 5 5 5 5 5 5 5 5 5 5 ",
"q r r 5 s 5 r 4 5 t u v w x y z A B C D E F y n G H I J 5 F K 4 L M y N O 4 5 r r 5 s 5 r r @ P ",
"Q 5 R : 2 : R 4 S T U V W X 2 Y Z `  ...+.@.2 #.$.2 %.&.S *.=.4 -.;.2 >.,.4 S R R : 2 : R R 2 R ",
"'.} } 5 5 5 } 4 ).!.~.2 2 ).2 {.4 4 4 ].).^./.(._.2 :.<.[.}.2 4 2 |.Q 1.2.4 ).} } 5 5 5 } } 2 Q ",
"3.= > ; ; ; > 4 } v 4.5.5.} 5.6.7.5.} 5.} 8.9.0.5.5.} a.b.8.5.4 5.c.d.e.} 4 } > > ; ; ; > > f.g.",
", ' ) ! ! ! ) 4 } h.i.j.k.p l.m.n.o.p.q.} r.4 s.l.l.} t.4 r.l.4 l.u.v.k.} 4 } ) ) ! ! ! ) ) ! ) ",
"~ { { ] ] ] { 4 } w.x.y.X z.A.B.C.D.1.E.} F.y.G.A.A.} H.D.F.A.4 A.} I.J.} 4 } { { ] ] ] { { ] ^ ",
"/ ] ] ( ( ( ] _ : _ : _ _ : _ : _ _ : _ : _ _ : _ _ : _ : _ _ : _ : _ _ : _ : ] ] ( ( ( ] ] < [ ",
"} | 1 / / / 1 > : > : > > : > : > > : > : > > : > > : > : > > : > : > > : > : 1 1 / / / 1 1 / 1 ",
"2 3 3 } } } 3 1 5 1 5 1 1 5 1 5 1 1 5 1 5 1 1 5 1 1 5 1 5 1 1 5 1 5 1 1 5 1 5 3 3 } } } 3 3 } e ",
"5 5 5 5 5 5 5 5 5 5 5 5 5 5 5 5 5 5 5 5 5 5 5 5 5 5 5 5 5 5 5 5 5 5 5 5 5 5 5 5 5 5 5 5 5 5 5 5 ",
"K.L.r 2 2 2 r r 2 2 2 r r 2 2 2 r r 2 2 2 r r 2 r r 2 2 2 r r 2 2 2 r r 2 2 2 r r 2 2 2 r r 2 r ",
"M.K.K.N.N.N.K.K.N.N.N.K.K.N.N.N.K.K.N.N.N.K.O.N.O.K.N.N.N.K.K.N.N.N.K.K.N.N.N.K.K.N.N.N.K.O.N.q "};
